<?xml version="1.0" standalone="no"?>
<!DOCTYPE svg PUBLIC "-//W3C//DTD SVG 20010904//EN"
 "http://www.w3.org/TR/2001/REC-SVG-20010904/DTD/svg10.dtd">
<svg version="1.0" xmlns="http://www.w3.org/2000/svg"
 width="512.000000pt" height="512.000000pt" viewBox="0 0 512.000000 512.000000"
 preserveAspectRatio="xMidYMid meet">
<metadata>
Created by potrace 1.14, written by Peter Selinger 2001-2017
</metadata>
<g transform="translate(0.000000,512.000000) scale(0.100000,-0.100000)"
fill="#000000" stroke="none">
<path d="M2510 4600 c-149 -19 -287 -155 -358 -352 -23 -65 -26 -88 -26 -208
0 -122 2 -143 28 -215 71 -205 248 -368 401 -369 152 -2 338 165 404 361 54
160 47 351 -17 491 -50 110 -156 227 -239 264 -55 24 -132 35 -193 28z m145
-141 c84 -40 177 -170 206 -289 28 -118 10 -270 -47 -381 -54 -108 -185 -214
-259 -212 -73 2 -193 100 -248 201 -35 65 -67 189 -67 261 0 80 25 183 57 243
38 71 120 157 168 179 55 25 134 24 190 -2z"/>
<path d="M1871 3258 c-58 -28 -102 -91 -150 -213 -43 -108 -52 -142 -131 -485
-66 -285 -124 -435 -228 -593 -89 -135 -188 -211 -336 -256 -101 -31 -111 -29
-135 25 -12 25 -30 78 -42 117 -40 136 -88 197 -156 197 -79 -1 -113 -109 -79
-252 50 -206 241 -279 491 -188 292 108 472 373 591 872 96 404 115 471 152
552 36 77 78 126 108 126 7 0 26 -17 42 -37 105 -134 150 -348 139 -668 -11
-313 -87 -579 -230 -798 -55 -85 -174 -220 -186 -213 -4 3 -52 10 -108 16 -72
8 -137 8 -231 0 -392 -31 -627 -181 -706 -449 -41 -140 10 -312 111 -371 120
-70 337 -105 613 -97 205 6 328 28 495 87 97 35 476 207 590 268 l70 38 148
-73 c349 -173 551 -254 742 -296 88 -19 129 -22 335 -21 200 0 249 3 330 21
186 41 253 78 303 172 107 196 1 469 -233 599 -90 50 -225 96 -335 112 -99 15
-342 17 -410 2 l-50 -10 -45 46 c-159 165 -271 393 -332 675 -20 90 -22 132
-23 362 0 239 2 267 23 350 27 107 79 219 120 258 29 28 31 28 61 13 60 -31
119 -178 177 -436 124 -551 211 -758 399 -945 141 -142 387 -226 537 -185 110
31 187 126 208 258 20 128 -15 212 -88 212 -70 0 -111 -52 -152 -190 -12 -41
-31 -96 -42 -122 -24 -57 -39 -60 -139 -27 -207 67 -327 192 -444 463 -64 149
-77 196 -144 493 -73 321 -123 461 -197 543 -47 52 -87 70 -152 70 -46 0 -53
-4 -99 -50 -148 -148 -218 -451 -193 -841 24 -374 141 -690 349 -940 l30 -36
-130 -48 c-143 -52 -389 -170 -487 -234 l-64 -42 -71 47 c-98 63 -328 173
-467 224 -63 23 -121 45 -128 49 -9 5 2 26 39 72 208 257 314 575 326 974 11
378 -49 625 -189 769 -51 53 -57 56 -104 56 -30 0 -66 -8 -93 -22z m-161
-1934 c96 -17 213 -55 375 -121 111 -46 318 -153 344 -179 13 -12 -7 -24 -141
-88 -503 -240 -665 -285 -998 -273 -254 9 -412 46 -464 107 -78 94 -43 279 75
391 158 150 494 218 809 163z m2105 5 c175 -23 325 -90 413 -183 67 -71 93
-131 99 -226 4 -65 2 -81 -19 -120 -50 -94 -200 -132 -528 -134 -236 -1 -296
7 -480 66 -143 46 -638 274 -623 288 22 21 196 114 291 155 354 156 554 192
847 154z"/>
</g>
</svg>
